<mxfile host="app.diagrams.net" modified="2022-12-06T03:00:30.052Z" agent="5.0 (Windows NT 10.0; Win64; x64) AppleWebKit/537.36 (KHTML, like Gecko) Chrome/108.0.0.0 Safari/537.36" etag="EoGVLUMfRuUTtII90rCO" version="20.6.0" type="github">
  <diagram id="C5RBs43oDa-KdzZeNtuy" name="Page-1">
    <mxGraphModel dx="1633" dy="465" grid="1" gridSize="10" guides="1" tooltips="1" connect="1" arrows="1" fold="1" page="1" pageScale="1" pageWidth="827" pageHeight="1169" math="0" shadow="0">
      <root>
        <mxCell id="WIyWlLk6GJQsqaUBKTNV-0" />
        <mxCell id="WIyWlLk6GJQsqaUBKTNV-1" parent="WIyWlLk6GJQsqaUBKTNV-0" />
        <mxCell id="_sYlSpWN1HYsYs82sBQ6-72" value="" style="edgeStyle=orthogonalEdgeStyle;rounded=0;orthogonalLoop=1;jettySize=auto;html=1;entryX=0.5;entryY=0;entryDx=0;entryDy=0;" parent="WIyWlLk6GJQsqaUBKTNV-1" source="zkfFHV4jXpPFQw0GAbJ--0" target="_sYlSpWN1HYsYs82sBQ6-48" edge="1">
          <mxGeometry relative="1" as="geometry" />
        </mxCell>
        <mxCell id="zkfFHV4jXpPFQw0GAbJ--0" value="CLIENT" style="swimlane;fontStyle=3;align=center;verticalAlign=top;childLayout=stackLayout;horizontal=1;startSize=26;horizontalStack=0;resizeParent=1;resizeLast=0;collapsible=1;marginBottom=0;rounded=0;shadow=0;strokeWidth=1;" parent="WIyWlLk6GJQsqaUBKTNV-1" vertex="1">
          <mxGeometry x="224" y="30" width="190" height="560" as="geometry">
            <mxRectangle x="230" y="140" width="160" height="26" as="alternateBounds" />
          </mxGeometry>
        </mxCell>
        <mxCell id="zkfFHV4jXpPFQw0GAbJ--1" value="userId: INT" style="text;align=left;verticalAlign=top;spacingLeft=4;spacingRight=4;overflow=hidden;rotatable=0;points=[[0,0.5],[1,0.5]];portConstraint=eastwest;" parent="zkfFHV4jXpPFQw0GAbJ--0" vertex="1">
          <mxGeometry y="26" width="190" height="26" as="geometry" />
        </mxCell>
        <mxCell id="zkfFHV4jXpPFQw0GAbJ--3" value="username: VARCHAR (50)" style="text;align=left;verticalAlign=top;spacingLeft=4;spacingRight=4;overflow=hidden;rotatable=0;points=[[0,0.5],[1,0.5]];portConstraint=eastwest;rounded=0;shadow=0;html=0;" parent="zkfFHV4jXpPFQw0GAbJ--0" vertex="1">
          <mxGeometry y="52" width="190" height="26" as="geometry" />
        </mxCell>
        <mxCell id="zkfFHV4jXpPFQw0GAbJ--2" value="userPass:  VARCHAR(10)" style="text;align=left;verticalAlign=top;spacingLeft=4;spacingRight=4;overflow=hidden;rotatable=0;points=[[0,0.5],[1,0.5]];portConstraint=eastwest;rounded=0;shadow=0;html=0;" parent="zkfFHV4jXpPFQw0GAbJ--0" vertex="1">
          <mxGeometry y="78" width="190" height="26" as="geometry" />
        </mxCell>
        <mxCell id="_sYlSpWN1HYsYs82sBQ6-0" value="userFirstName: VARCHAR (50)" style="text;align=left;verticalAlign=top;spacingLeft=4;spacingRight=4;overflow=hidden;rotatable=0;points=[[0,0.5],[1,0.5]];portConstraint=eastwest;rounded=0;shadow=0;html=0;" parent="zkfFHV4jXpPFQw0GAbJ--0" vertex="1">
          <mxGeometry y="104" width="190" height="26" as="geometry" />
        </mxCell>
        <mxCell id="_sYlSpWN1HYsYs82sBQ6-1" value="userLastName: VARCHAR (50)" style="text;align=left;verticalAlign=top;spacingLeft=4;spacingRight=4;overflow=hidden;rotatable=0;points=[[0,0.5],[1,0.5]];portConstraint=eastwest;rounded=0;shadow=0;html=0;" parent="zkfFHV4jXpPFQw0GAbJ--0" vertex="1">
          <mxGeometry y="130" width="190" height="26" as="geometry" />
        </mxCell>
        <mxCell id="HWUBUczun7akZG6CtxvM-0" value="userDNI: INT" style="text;align=left;verticalAlign=top;spacingLeft=4;spacingRight=4;overflow=hidden;rotatable=0;points=[[0,0.5],[1,0.5]];portConstraint=eastwest;rounded=0;shadow=0;html=0;" parent="zkfFHV4jXpPFQw0GAbJ--0" vertex="1">
          <mxGeometry y="156" width="190" height="24" as="geometry" />
        </mxCell>
        <mxCell id="HWUBUczun7akZG6CtxvM-1" value="userBirthdate: DATE" style="text;align=left;verticalAlign=top;spacingLeft=4;spacingRight=4;overflow=hidden;rotatable=0;points=[[0,0.5],[1,0.5]];portConstraint=eastwest;rounded=0;shadow=0;html=0;" parent="zkfFHV4jXpPFQw0GAbJ--0" vertex="1">
          <mxGeometry y="180" width="190" height="24" as="geometry" />
        </mxCell>
        <mxCell id="HWUBUczun7akZG6CtxvM-2" value="userPhone: VARCHAR (9)" style="text;align=left;verticalAlign=top;spacingLeft=4;spacingRight=4;overflow=hidden;rotatable=0;points=[[0,0.5],[1,0.5]];portConstraint=eastwest;rounded=0;shadow=0;html=0;" parent="zkfFHV4jXpPFQw0GAbJ--0" vertex="1">
          <mxGeometry y="204" width="190" height="24" as="geometry" />
        </mxCell>
        <mxCell id="_sYlSpWN1HYsYs82sBQ6-3" value="userEmail: VARCHAR (100)" style="text;align=left;verticalAlign=top;spacingLeft=4;spacingRight=4;overflow=hidden;rotatable=0;points=[[0,0.5],[1,0.5]];portConstraint=eastwest;rounded=0;shadow=0;html=0;" parent="zkfFHV4jXpPFQw0GAbJ--0" vertex="1">
          <mxGeometry y="228" width="190" height="24" as="geometry" />
        </mxCell>
        <mxCell id="_sYlSpWN1HYsYs82sBQ6-2" value="userRegisterDate: DATE" style="text;align=left;verticalAlign=top;spacingLeft=4;spacingRight=4;overflow=hidden;rotatable=0;points=[[0,0.5],[1,0.5]];portConstraint=eastwest;rounded=0;shadow=0;html=0;" parent="zkfFHV4jXpPFQw0GAbJ--0" vertex="1">
          <mxGeometry y="252" width="190" height="24" as="geometry" />
        </mxCell>
        <mxCell id="_sYlSpWN1HYsYs82sBQ6-12" value="userStatus: bool" style="text;align=left;verticalAlign=top;spacingLeft=4;spacingRight=4;overflow=hidden;rotatable=0;points=[[0,0.5],[1,0.5]];portConstraint=eastwest;rounded=0;shadow=0;html=0;" parent="zkfFHV4jXpPFQw0GAbJ--0" vertex="1">
          <mxGeometry y="276" width="190" height="24" as="geometry" />
        </mxCell>
        <mxCell id="_sYlSpWN1HYsYs82sBQ6-30" value="userAddress: VARCHAR (100)" style="text;align=left;verticalAlign=top;spacingLeft=4;spacingRight=4;overflow=hidden;rotatable=0;points=[[0,0.5],[1,0.5]];portConstraint=eastwest;rounded=0;shadow=0;html=0;" parent="zkfFHV4jXpPFQw0GAbJ--0" vertex="1">
          <mxGeometry y="300" width="190" height="24" as="geometry" />
        </mxCell>
        <mxCell id="_sYlSpWN1HYsYs82sBQ6-31" value="userPaymentCard: INT" style="text;align=left;verticalAlign=top;spacingLeft=4;spacingRight=4;overflow=hidden;rotatable=0;points=[[0,0.5],[1,0.5]];portConstraint=eastwest;rounded=0;shadow=0;html=0;" parent="zkfFHV4jXpPFQw0GAbJ--0" vertex="1">
          <mxGeometry y="324" width="190" height="24" as="geometry" />
        </mxCell>
        <mxCell id="HWUBUczun7akZG6CtxvM-3" value="rolId: INTEGER" style="text;align=left;verticalAlign=top;spacingLeft=4;spacingRight=4;overflow=hidden;rotatable=0;points=[[0,0.5],[1,0.5]];portConstraint=eastwest;rounded=0;shadow=0;html=0;" parent="zkfFHV4jXpPFQw0GAbJ--0" vertex="1">
          <mxGeometry y="348" width="190" height="24" as="geometry" />
        </mxCell>
        <mxCell id="zkfFHV4jXpPFQw0GAbJ--4" value="" style="line;html=1;strokeWidth=1;align=left;verticalAlign=middle;spacingTop=-1;spacingLeft=3;spacingRight=3;rotatable=0;labelPosition=right;points=[];portConstraint=eastwest;" parent="zkfFHV4jXpPFQw0GAbJ--0" vertex="1">
          <mxGeometry y="372" width="190" height="20" as="geometry" />
        </mxCell>
        <mxCell id="_sYlSpWN1HYsYs82sBQ6-5" value="Register" style="text;align=left;verticalAlign=top;spacingLeft=4;spacingRight=4;overflow=hidden;rotatable=0;points=[[0,0.5],[1,0.5]];portConstraint=eastwest;rounded=0;shadow=0;html=0;" parent="zkfFHV4jXpPFQw0GAbJ--0" vertex="1">
          <mxGeometry y="392" width="190" height="24" as="geometry" />
        </mxCell>
        <mxCell id="_sYlSpWN1HYsYs82sBQ6-6" value="Login" style="text;align=left;verticalAlign=top;spacingLeft=4;spacingRight=4;overflow=hidden;rotatable=0;points=[[0,0.5],[1,0.5]];portConstraint=eastwest;rounded=0;shadow=0;html=0;" parent="zkfFHV4jXpPFQw0GAbJ--0" vertex="1">
          <mxGeometry y="416" width="190" height="24" as="geometry" />
        </mxCell>
        <mxCell id="_sYlSpWN1HYsYs82sBQ6-7" value="Add items to basket" style="text;align=left;verticalAlign=top;spacingLeft=4;spacingRight=4;overflow=hidden;rotatable=0;points=[[0,0.5],[1,0.5]];portConstraint=eastwest;rounded=0;shadow=0;html=0;" parent="zkfFHV4jXpPFQw0GAbJ--0" vertex="1">
          <mxGeometry y="440" width="190" height="24" as="geometry" />
        </mxCell>
        <mxCell id="_sYlSpWN1HYsYs82sBQ6-8" value="See basket" style="text;align=left;verticalAlign=top;spacingLeft=4;spacingRight=4;overflow=hidden;rotatable=0;points=[[0,0.5],[1,0.5]];portConstraint=eastwest;rounded=0;shadow=0;html=0;" parent="zkfFHV4jXpPFQw0GAbJ--0" vertex="1">
          <mxGeometry y="464" width="190" height="24" as="geometry" />
        </mxCell>
        <mxCell id="_sYlSpWN1HYsYs82sBQ6-9" value="Pay basket" style="text;align=left;verticalAlign=top;spacingLeft=4;spacingRight=4;overflow=hidden;rotatable=0;points=[[0,0.5],[1,0.5]];portConstraint=eastwest;rounded=0;shadow=0;html=0;" parent="zkfFHV4jXpPFQw0GAbJ--0" vertex="1">
          <mxGeometry y="488" width="190" height="24" as="geometry" />
        </mxCell>
        <mxCell id="_sYlSpWN1HYsYs82sBQ6-11" value="Forgot Password" style="text;align=left;verticalAlign=top;spacingLeft=4;spacingRight=4;overflow=hidden;rotatable=0;points=[[0,0.5],[1,0.5]];portConstraint=eastwest;rounded=0;shadow=0;html=0;" parent="zkfFHV4jXpPFQw0GAbJ--0" vertex="1">
          <mxGeometry y="512" width="190" height="24" as="geometry" />
        </mxCell>
        <mxCell id="_sYlSpWN1HYsYs82sBQ6-10" value="Update user data" style="text;align=left;verticalAlign=top;spacingLeft=4;spacingRight=4;overflow=hidden;rotatable=0;points=[[0,0.5],[1,0.5]];portConstraint=eastwest;rounded=0;shadow=0;html=0;" parent="zkfFHV4jXpPFQw0GAbJ--0" vertex="1">
          <mxGeometry y="536" width="190" height="24" as="geometry" />
        </mxCell>
        <mxCell id="zkfFHV4jXpPFQw0GAbJ--26" value="" style="endArrow=open;shadow=0;strokeWidth=1;rounded=0;endFill=1;edgeStyle=elbowEdgeStyle;elbow=vertical;" parent="WIyWlLk6GJQsqaUBKTNV-1" source="zkfFHV4jXpPFQw0GAbJ--0" edge="1">
          <mxGeometry x="0.5" y="41" relative="1" as="geometry">
            <mxPoint x="380" y="192" as="sourcePoint" />
            <mxPoint x="508" y="189.3529411764706" as="targetPoint" />
            <mxPoint x="-40" y="32" as="offset" />
          </mxGeometry>
        </mxCell>
        <mxCell id="_sYlSpWN1HYsYs82sBQ6-13" value="ROL" style="swimlane;fontStyle=3;align=center;verticalAlign=top;childLayout=stackLayout;horizontal=1;startSize=26;horizontalStack=0;resizeParent=1;resizeLast=0;collapsible=1;marginBottom=0;rounded=0;shadow=0;strokeWidth=1;" parent="WIyWlLk6GJQsqaUBKTNV-1" vertex="1">
          <mxGeometry x="510" y="80" width="190" height="180" as="geometry">
            <mxRectangle x="230" y="140" width="160" height="26" as="alternateBounds" />
          </mxGeometry>
        </mxCell>
        <mxCell id="_sYlSpWN1HYsYs82sBQ6-16" value="rolId: INTEGER" style="text;align=left;verticalAlign=top;spacingLeft=4;spacingRight=4;overflow=hidden;rotatable=0;points=[[0,0.5],[1,0.5]];portConstraint=eastwest;rounded=0;shadow=0;html=0;" parent="_sYlSpWN1HYsYs82sBQ6-13" vertex="1">
          <mxGeometry y="26" width="190" height="26" as="geometry" />
        </mxCell>
        <mxCell id="_sYlSpWN1HYsYs82sBQ6-15" value="username:  VARCHAR(10)" style="text;align=left;verticalAlign=top;spacingLeft=4;spacingRight=4;overflow=hidden;rotatable=0;points=[[0,0.5],[1,0.5]];portConstraint=eastwest;rounded=0;shadow=0;html=0;" parent="_sYlSpWN1HYsYs82sBQ6-13" vertex="1">
          <mxGeometry y="52" width="190" height="26" as="geometry" />
        </mxCell>
        <mxCell id="_sYlSpWN1HYsYs82sBQ6-20" value="userDescription: VARCHAR (200)" style="text;align=left;verticalAlign=top;spacingLeft=4;spacingRight=4;overflow=hidden;rotatable=0;points=[[0,0.5],[1,0.5]];portConstraint=eastwest;rounded=0;shadow=0;html=0;" parent="_sYlSpWN1HYsYs82sBQ6-13" vertex="1">
          <mxGeometry y="78" width="190" height="24" as="geometry" />
        </mxCell>
        <mxCell id="_sYlSpWN1HYsYs82sBQ6-21" value="userStatus: bool" style="text;align=left;verticalAlign=top;spacingLeft=4;spacingRight=4;overflow=hidden;rotatable=0;points=[[0,0.5],[1,0.5]];portConstraint=eastwest;rounded=0;shadow=0;html=0;" parent="_sYlSpWN1HYsYs82sBQ6-13" vertex="1">
          <mxGeometry y="102" width="190" height="24" as="geometry" />
        </mxCell>
        <mxCell id="_sYlSpWN1HYsYs82sBQ6-22" value="" style="line;html=1;strokeWidth=1;align=left;verticalAlign=middle;spacingTop=-1;spacingLeft=3;spacingRight=3;rotatable=0;labelPosition=right;points=[];portConstraint=eastwest;" parent="_sYlSpWN1HYsYs82sBQ6-13" vertex="1">
          <mxGeometry y="126" width="190" height="22" as="geometry" />
        </mxCell>
        <mxCell id="_sYlSpWN1HYsYs82sBQ6-24" value="cllient/employee rol" style="text;align=left;verticalAlign=top;spacingLeft=4;spacingRight=4;overflow=hidden;rotatable=0;points=[[0,0.5],[1,0.5]];portConstraint=eastwest;rounded=0;shadow=0;html=0;" parent="_sYlSpWN1HYsYs82sBQ6-13" vertex="1">
          <mxGeometry y="148" width="190" height="24" as="geometry" />
        </mxCell>
        <mxCell id="_sYlSpWN1HYsYs82sBQ6-34" value="BASKET" style="swimlane;fontStyle=3;align=center;verticalAlign=top;childLayout=stackLayout;horizontal=1;startSize=26;horizontalStack=0;resizeParent=1;resizeLast=0;collapsible=1;marginBottom=0;rounded=0;shadow=0;strokeWidth=1;" parent="WIyWlLk6GJQsqaUBKTNV-1" vertex="1">
          <mxGeometry x="-60" y="480" width="190" height="250" as="geometry">
            <mxRectangle x="230" y="140" width="160" height="26" as="alternateBounds" />
          </mxGeometry>
        </mxCell>
        <mxCell id="_sYlSpWN1HYsYs82sBQ6-37" value="basketId: INT" style="text;align=left;verticalAlign=top;spacingLeft=4;spacingRight=4;overflow=hidden;rotatable=0;points=[[0,0.5],[1,0.5]];portConstraint=eastwest;rounded=0;shadow=0;html=0;" parent="_sYlSpWN1HYsYs82sBQ6-34" vertex="1">
          <mxGeometry y="26" width="190" height="24" as="geometry" />
        </mxCell>
        <mxCell id="_sYlSpWN1HYsYs82sBQ6-35" value="productId: INT" style="text;align=left;verticalAlign=top;spacingLeft=4;spacingRight=4;overflow=hidden;rotatable=0;points=[[0,0.5],[1,0.5]];portConstraint=eastwest;rounded=0;shadow=0;html=0;" parent="_sYlSpWN1HYsYs82sBQ6-34" vertex="1">
          <mxGeometry y="50" width="190" height="26" as="geometry" />
        </mxCell>
        <mxCell id="_sYlSpWN1HYsYs82sBQ6-36" value="productQuantity: INT" style="text;align=left;verticalAlign=top;spacingLeft=4;spacingRight=4;overflow=hidden;rotatable=0;points=[[0,0.5],[1,0.5]];portConstraint=eastwest;rounded=0;shadow=0;html=0;" parent="_sYlSpWN1HYsYs82sBQ6-34" vertex="1">
          <mxGeometry y="76" width="190" height="26" as="geometry" />
        </mxCell>
        <mxCell id="_sYlSpWN1HYsYs82sBQ6-38" value="productAddDate: DATE" style="text;align=left;verticalAlign=top;spacingLeft=4;spacingRight=4;overflow=hidden;rotatable=0;points=[[0,0.5],[1,0.5]];portConstraint=eastwest;rounded=0;shadow=0;html=0;" parent="_sYlSpWN1HYsYs82sBQ6-34" vertex="1">
          <mxGeometry y="102" width="190" height="24" as="geometry" />
        </mxCell>
        <mxCell id="_sYlSpWN1HYsYs82sBQ6-40" value="" style="line;html=1;strokeWidth=1;align=left;verticalAlign=middle;spacingTop=-1;spacingLeft=3;spacingRight=3;rotatable=0;labelPosition=right;points=[];portConstraint=eastwest;" parent="_sYlSpWN1HYsYs82sBQ6-34" vertex="1">
          <mxGeometry y="126" width="190" height="22" as="geometry" />
        </mxCell>
        <mxCell id="_sYlSpWN1HYsYs82sBQ6-41" value="Add product" style="text;align=left;verticalAlign=top;spacingLeft=4;spacingRight=4;overflow=hidden;rotatable=0;points=[[0,0.5],[1,0.5]];portConstraint=eastwest;rounded=0;shadow=0;html=0;" parent="_sYlSpWN1HYsYs82sBQ6-34" vertex="1">
          <mxGeometry y="148" width="190" height="24" as="geometry" />
        </mxCell>
        <mxCell id="_sYlSpWN1HYsYs82sBQ6-42" value="Add product quantity" style="text;align=left;verticalAlign=top;spacingLeft=4;spacingRight=4;overflow=hidden;rotatable=0;points=[[0,0.5],[1,0.5]];portConstraint=eastwest;rounded=0;shadow=0;html=0;" parent="_sYlSpWN1HYsYs82sBQ6-34" vertex="1">
          <mxGeometry y="172" width="190" height="24" as="geometry" />
        </mxCell>
        <mxCell id="_sYlSpWN1HYsYs82sBQ6-102" value="View basket product/prices" style="text;align=left;verticalAlign=top;spacingLeft=4;spacingRight=4;overflow=hidden;rotatable=0;points=[[0,0.5],[1,0.5]];portConstraint=eastwest;rounded=0;shadow=0;html=0;" parent="_sYlSpWN1HYsYs82sBQ6-34" vertex="1">
          <mxGeometry y="196" width="190" height="24" as="geometry" />
        </mxCell>
        <mxCell id="_sYlSpWN1HYsYs82sBQ6-43" value="Basket Check out" style="text;align=left;verticalAlign=top;spacingLeft=4;spacingRight=4;overflow=hidden;rotatable=0;points=[[0,0.5],[1,0.5]];portConstraint=eastwest;rounded=0;shadow=0;html=0;" parent="_sYlSpWN1HYsYs82sBQ6-34" vertex="1">
          <mxGeometry y="220" width="190" height="24" as="geometry" />
        </mxCell>
        <mxCell id="_sYlSpWN1HYsYs82sBQ6-45" value="" style="endArrow=classic;html=1;rounded=0;entryX=0.99;entryY=0.061;entryDx=0;entryDy=0;entryPerimeter=0;" parent="WIyWlLk6GJQsqaUBKTNV-1" target="_sYlSpWN1HYsYs82sBQ6-38" edge="1">
          <mxGeometry width="50" height="50" relative="1" as="geometry">
            <mxPoint x="220" y="183" as="sourcePoint" />
            <mxPoint x="220" y="194" as="targetPoint" />
            <Array as="points">
              <mxPoint x="180" y="183" />
              <mxPoint x="180" y="543" />
            </Array>
          </mxGeometry>
        </mxCell>
        <mxCell id="_sYlSpWN1HYsYs82sBQ6-48" value="ORDER" style="swimlane;fontStyle=3;align=center;verticalAlign=top;childLayout=stackLayout;horizontal=1;startSize=26;horizontalStack=0;resizeParent=1;resizeLast=0;collapsible=1;marginBottom=0;rounded=0;shadow=0;strokeWidth=1;" parent="WIyWlLk6GJQsqaUBKTNV-1" vertex="1">
          <mxGeometry x="224" y="630" width="190" height="294" as="geometry">
            <mxRectangle x="230" y="140" width="160" height="26" as="alternateBounds" />
          </mxGeometry>
        </mxCell>
        <mxCell id="_sYlSpWN1HYsYs82sBQ6-49" value="orderId: INT" style="text;align=left;verticalAlign=top;spacingLeft=4;spacingRight=4;overflow=hidden;rotatable=0;points=[[0,0.5],[1,0.5]];portConstraint=eastwest;rounded=0;shadow=0;html=0;" parent="_sYlSpWN1HYsYs82sBQ6-48" vertex="1">
          <mxGeometry y="26" width="190" height="26" as="geometry" />
        </mxCell>
        <mxCell id="_sYlSpWN1HYsYs82sBQ6-50" value="orderDate: DATE" style="text;align=left;verticalAlign=top;spacingLeft=4;spacingRight=4;overflow=hidden;rotatable=0;points=[[0,0.5],[1,0.5]];portConstraint=eastwest;rounded=0;shadow=0;html=0;" parent="_sYlSpWN1HYsYs82sBQ6-48" vertex="1">
          <mxGeometry y="52" width="190" height="26" as="geometry" />
        </mxCell>
        <mxCell id="_sYlSpWN1HYsYs82sBQ6-66" value="orderTotal: FLOAT" style="text;align=left;verticalAlign=top;spacingLeft=4;spacingRight=4;overflow=hidden;rotatable=0;points=[[0,0.5],[1,0.5]];portConstraint=eastwest;rounded=0;shadow=0;html=0;" parent="_sYlSpWN1HYsYs82sBQ6-48" vertex="1">
          <mxGeometry y="78" width="190" height="26" as="geometry" />
        </mxCell>
        <mxCell id="_sYlSpWN1HYsYs82sBQ6-51" value="orderItemsNumber: INT" style="text;align=left;verticalAlign=top;spacingLeft=4;spacingRight=4;overflow=hidden;rotatable=0;points=[[0,0.5],[1,0.5]];portConstraint=eastwest;rounded=0;shadow=0;html=0;" parent="_sYlSpWN1HYsYs82sBQ6-48" vertex="1">
          <mxGeometry y="104" width="190" height="24" as="geometry" />
        </mxCell>
        <mxCell id="_sYlSpWN1HYsYs82sBQ6-52" value="clientId: INT" style="text;align=left;verticalAlign=top;spacingLeft=4;spacingRight=4;overflow=hidden;rotatable=0;points=[[0,0.5],[1,0.5]];portConstraint=eastwest;rounded=0;shadow=0;html=0;" parent="_sYlSpWN1HYsYs82sBQ6-48" vertex="1">
          <mxGeometry y="128" width="190" height="24" as="geometry" />
        </mxCell>
        <mxCell id="_sYlSpWN1HYsYs82sBQ6-53" value="orderStatus:bool" style="text;align=left;verticalAlign=top;spacingLeft=4;spacingRight=4;overflow=hidden;rotatable=0;points=[[0,0.5],[1,0.5]];portConstraint=eastwest;rounded=0;shadow=0;html=0;" parent="_sYlSpWN1HYsYs82sBQ6-48" vertex="1">
          <mxGeometry y="152" width="190" height="24" as="geometry" />
        </mxCell>
        <mxCell id="_sYlSpWN1HYsYs82sBQ6-75" value="paymentApproval: bool" style="text;align=left;verticalAlign=top;spacingLeft=4;spacingRight=4;overflow=hidden;rotatable=0;points=[[0,0.5],[1,0.5]];portConstraint=eastwest;rounded=0;shadow=0;html=0;" parent="_sYlSpWN1HYsYs82sBQ6-48" vertex="1">
          <mxGeometry y="176" width="190" height="24" as="geometry" />
        </mxCell>
        <mxCell id="_sYlSpWN1HYsYs82sBQ6-54" value="" style="line;html=1;strokeWidth=1;align=left;verticalAlign=middle;spacingTop=-1;spacingLeft=3;spacingRight=3;rotatable=0;labelPosition=right;points=[];portConstraint=eastwest;" parent="_sYlSpWN1HYsYs82sBQ6-48" vertex="1">
          <mxGeometry y="200" width="190" height="22" as="geometry" />
        </mxCell>
        <mxCell id="_sYlSpWN1HYsYs82sBQ6-71" value="Calculate price" style="text;align=left;verticalAlign=top;spacingLeft=4;spacingRight=4;overflow=hidden;rotatable=0;points=[[0,0.5],[1,0.5]];portConstraint=eastwest;rounded=0;shadow=0;html=0;" parent="_sYlSpWN1HYsYs82sBQ6-48" vertex="1">
          <mxGeometry y="222" width="190" height="24" as="geometry" />
        </mxCell>
        <mxCell id="_sYlSpWN1HYsYs82sBQ6-76" value="Create Order" style="text;align=left;verticalAlign=top;spacingLeft=4;spacingRight=4;overflow=hidden;rotatable=0;points=[[0,0.5],[1,0.5]];portConstraint=eastwest;rounded=0;shadow=0;html=0;" parent="_sYlSpWN1HYsYs82sBQ6-48" vertex="1">
          <mxGeometry y="246" width="190" height="24" as="geometry" />
        </mxCell>
        <mxCell id="_sYlSpWN1HYsYs82sBQ6-103" value="Order date, status, payment details" style="text;align=left;verticalAlign=top;spacingLeft=4;spacingRight=4;overflow=hidden;rotatable=0;points=[[0,0.5],[1,0.5]];portConstraint=eastwest;rounded=0;shadow=0;html=0;" parent="_sYlSpWN1HYsYs82sBQ6-48" vertex="1">
          <mxGeometry y="270" width="190" height="24" as="geometry" />
        </mxCell>
        <mxCell id="_sYlSpWN1HYsYs82sBQ6-56" value="SHHIPPING DETAILS" style="swimlane;fontStyle=3;align=center;verticalAlign=top;childLayout=stackLayout;horizontal=1;startSize=26;horizontalStack=0;resizeParent=1;resizeLast=0;collapsible=1;marginBottom=0;rounded=0;shadow=0;strokeWidth=1;" parent="WIyWlLk6GJQsqaUBKTNV-1" vertex="1">
          <mxGeometry x="500" y="510" width="190" height="174" as="geometry">
            <mxRectangle x="230" y="140" width="160" height="26" as="alternateBounds" />
          </mxGeometry>
        </mxCell>
        <mxCell id="_sYlSpWN1HYsYs82sBQ6-57" value="shippingId: INT" style="text;align=left;verticalAlign=top;spacingLeft=4;spacingRight=4;overflow=hidden;rotatable=0;points=[[0,0.5],[1,0.5]];portConstraint=eastwest;rounded=0;shadow=0;html=0;" parent="_sYlSpWN1HYsYs82sBQ6-56" vertex="1">
          <mxGeometry y="26" width="190" height="26" as="geometry" />
        </mxCell>
        <mxCell id="HWUBUczun7akZG6CtxvM-15" value="orderId: INT" style="text;align=left;verticalAlign=top;spacingLeft=4;spacingRight=4;overflow=hidden;rotatable=0;points=[[0,0.5],[1,0.5]];portConstraint=eastwest;rounded=0;shadow=0;html=0;" parent="_sYlSpWN1HYsYs82sBQ6-56" vertex="1">
          <mxGeometry y="52" width="190" height="26" as="geometry" />
        </mxCell>
        <mxCell id="_sYlSpWN1HYsYs82sBQ6-58" value="shippingStatus: bool" style="text;align=left;verticalAlign=top;spacingLeft=4;spacingRight=4;overflow=hidden;rotatable=0;points=[[0,0.5],[1,0.5]];portConstraint=eastwest;rounded=0;shadow=0;html=0;" parent="_sYlSpWN1HYsYs82sBQ6-56" vertex="1">
          <mxGeometry y="78" width="190" height="26" as="geometry" />
        </mxCell>
        <mxCell id="_sYlSpWN1HYsYs82sBQ6-59" value="shipingCost: FLOAT" style="text;align=left;verticalAlign=top;spacingLeft=4;spacingRight=4;overflow=hidden;rotatable=0;points=[[0,0.5],[1,0.5]];portConstraint=eastwest;rounded=0;shadow=0;html=0;" parent="_sYlSpWN1HYsYs82sBQ6-56" vertex="1">
          <mxGeometry y="104" width="190" height="24" as="geometry" />
        </mxCell>
        <mxCell id="_sYlSpWN1HYsYs82sBQ6-62" value="" style="line;html=1;strokeWidth=1;align=left;verticalAlign=middle;spacingTop=-1;spacingLeft=3;spacingRight=3;rotatable=0;labelPosition=right;points=[];portConstraint=eastwest;" parent="_sYlSpWN1HYsYs82sBQ6-56" vertex="1">
          <mxGeometry y="128" width="190" height="22" as="geometry" />
        </mxCell>
        <mxCell id="_sYlSpWN1HYsYs82sBQ6-63" value="Update shipping info" style="text;align=left;verticalAlign=top;spacingLeft=4;spacingRight=4;overflow=hidden;rotatable=0;points=[[0,0.5],[1,0.5]];portConstraint=eastwest;rounded=0;shadow=0;html=0;" parent="_sYlSpWN1HYsYs82sBQ6-56" vertex="1">
          <mxGeometry y="150" width="190" height="24" as="geometry" />
        </mxCell>
        <mxCell id="_sYlSpWN1HYsYs82sBQ6-73" value="" style="edgeStyle=orthogonalEdgeStyle;rounded=0;orthogonalLoop=1;jettySize=auto;html=1;" parent="WIyWlLk6GJQsqaUBKTNV-1" source="_sYlSpWN1HYsYs82sBQ6-52" target="_sYlSpWN1HYsYs82sBQ6-63" edge="1">
          <mxGeometry relative="1" as="geometry" />
        </mxCell>
        <mxCell id="_sYlSpWN1HYsYs82sBQ6-78" value="CATEGORY" style="swimlane;fontStyle=3;align=center;verticalAlign=top;childLayout=stackLayout;horizontal=1;startSize=26;horizontalStack=0;resizeParent=1;resizeLast=0;collapsible=1;marginBottom=0;rounded=0;shadow=0;strokeWidth=1;" parent="WIyWlLk6GJQsqaUBKTNV-1" vertex="1">
          <mxGeometry x="-70" y="30" width="210" height="160" as="geometry">
            <mxRectangle x="230" y="140" width="160" height="26" as="alternateBounds" />
          </mxGeometry>
        </mxCell>
        <mxCell id="_sYlSpWN1HYsYs82sBQ6-79" value="categoryId: INT" style="text;align=left;verticalAlign=top;spacingLeft=4;spacingRight=4;overflow=hidden;rotatable=0;points=[[0,0.5],[1,0.5]];portConstraint=eastwest;rounded=0;shadow=0;html=0;" parent="_sYlSpWN1HYsYs82sBQ6-78" vertex="1">
          <mxGeometry y="26" width="210" height="24" as="geometry" />
        </mxCell>
        <mxCell id="_sYlSpWN1HYsYs82sBQ6-80" value="categoryName: VARCHAR(100)" style="text;align=left;verticalAlign=top;spacingLeft=4;spacingRight=4;overflow=hidden;rotatable=0;points=[[0,0.5],[1,0.5]];portConstraint=eastwest;rounded=0;shadow=0;html=0;" parent="_sYlSpWN1HYsYs82sBQ6-78" vertex="1">
          <mxGeometry y="50" width="210" height="26" as="geometry" />
        </mxCell>
        <mxCell id="_sYlSpWN1HYsYs82sBQ6-81" value="categoryDescription: VARCHAR(200)" style="text;align=left;verticalAlign=top;spacingLeft=4;spacingRight=4;overflow=hidden;rotatable=0;points=[[0,0.5],[1,0.5]];portConstraint=eastwest;rounded=0;shadow=0;html=0;" parent="_sYlSpWN1HYsYs82sBQ6-78" vertex="1">
          <mxGeometry y="76" width="210" height="26" as="geometry" />
        </mxCell>
        <mxCell id="_sYlSpWN1HYsYs82sBQ6-83" value="" style="line;html=1;strokeWidth=1;align=left;verticalAlign=middle;spacingTop=-1;spacingLeft=3;spacingRight=3;rotatable=0;labelPosition=right;points=[];portConstraint=eastwest;" parent="_sYlSpWN1HYsYs82sBQ6-78" vertex="1">
          <mxGeometry y="102" width="210" height="22" as="geometry" />
        </mxCell>
        <mxCell id="_sYlSpWN1HYsYs82sBQ6-84" value="Category information" style="text;align=left;verticalAlign=top;spacingLeft=4;spacingRight=4;overflow=hidden;rotatable=0;points=[[0,0.5],[1,0.5]];portConstraint=eastwest;rounded=0;shadow=0;html=0;" parent="_sYlSpWN1HYsYs82sBQ6-78" vertex="1">
          <mxGeometry y="124" width="210" height="24" as="geometry" />
        </mxCell>
        <mxCell id="_sYlSpWN1HYsYs82sBQ6-99" value="" style="endArrow=classic;html=1;rounded=0;entryX=0.5;entryY=0;entryDx=0;entryDy=0;exitX=0.5;exitY=1;exitDx=0;exitDy=0;" parent="WIyWlLk6GJQsqaUBKTNV-1" source="HWUBUczun7akZG6CtxvM-4" target="_sYlSpWN1HYsYs82sBQ6-34" edge="1">
          <mxGeometry width="50" height="50" relative="1" as="geometry">
            <mxPoint x="35" y="190" as="sourcePoint" />
            <mxPoint x="230" y="290" as="targetPoint" />
          </mxGeometry>
        </mxCell>
        <mxCell id="_sYlSpWN1HYsYs82sBQ6-100" value="" style="endArrow=classic;html=1;rounded=0;exitX=1;exitY=0.5;exitDx=0;exitDy=0;entryX=-0.021;entryY=-0.225;entryDx=0;entryDy=0;entryPerimeter=0;" parent="WIyWlLk6GJQsqaUBKTNV-1" target="_sYlSpWN1HYsYs82sBQ6-50" edge="1">
          <mxGeometry width="50" height="50" relative="1" as="geometry">
            <mxPoint x="130" y="712" as="sourcePoint" />
            <mxPoint x="320" y="620" as="targetPoint" />
          </mxGeometry>
        </mxCell>
        <mxCell id="HWUBUczun7akZG6CtxvM-4" value="MARKET PRODUCTS" style="swimlane;fontStyle=3;align=center;verticalAlign=top;childLayout=stackLayout;horizontal=1;startSize=26;horizontalStack=0;resizeParent=1;resizeLast=0;collapsible=1;marginBottom=0;rounded=0;shadow=0;strokeWidth=1;" parent="WIyWlLk6GJQsqaUBKTNV-1" vertex="1">
          <mxGeometry x="-70" y="220" width="210" height="222" as="geometry">
            <mxRectangle x="230" y="140" width="160" height="26" as="alternateBounds" />
          </mxGeometry>
        </mxCell>
        <mxCell id="HWUBUczun7akZG6CtxvM-5" value="productID: INT" style="text;align=left;verticalAlign=top;spacingLeft=4;spacingRight=4;overflow=hidden;rotatable=0;points=[[0,0.5],[1,0.5]];portConstraint=eastwest;rounded=0;shadow=0;html=0;" parent="HWUBUczun7akZG6CtxvM-4" vertex="1">
          <mxGeometry y="26" width="210" height="24" as="geometry" />
        </mxCell>
        <mxCell id="HWUBUczun7akZG6CtxvM-11" value="categoryId: INT" style="text;align=left;verticalAlign=top;spacingLeft=4;spacingRight=4;overflow=hidden;rotatable=0;points=[[0,0.5],[1,0.5]];portConstraint=eastwest;rounded=0;shadow=0;html=0;" parent="HWUBUczun7akZG6CtxvM-4" vertex="1">
          <mxGeometry y="50" width="210" height="24" as="geometry" />
        </mxCell>
        <mxCell id="HWUBUczun7akZG6CtxvM-12" value="productName: VARCHAR(100)" style="text;align=left;verticalAlign=top;spacingLeft=4;spacingRight=4;overflow=hidden;rotatable=0;points=[[0,0.5],[1,0.5]];portConstraint=eastwest;rounded=0;shadow=0;html=0;" parent="HWUBUczun7akZG6CtxvM-4" vertex="1">
          <mxGeometry y="74" width="210" height="24" as="geometry" />
        </mxCell>
        <mxCell id="HWUBUczun7akZG6CtxvM-6" value="unitCost: FLOAT" style="text;align=left;verticalAlign=top;spacingLeft=4;spacingRight=4;overflow=hidden;rotatable=0;points=[[0,0.5],[1,0.5]];portConstraint=eastwest;rounded=0;shadow=0;html=0;" parent="HWUBUczun7akZG6CtxvM-4" vertex="1">
          <mxGeometry y="98" width="210" height="26" as="geometry" />
        </mxCell>
        <mxCell id="HWUBUczun7akZG6CtxvM-7" value="productStock: INT" style="text;align=left;verticalAlign=top;spacingLeft=4;spacingRight=4;overflow=hidden;rotatable=0;points=[[0,0.5],[1,0.5]];portConstraint=eastwest;rounded=0;shadow=0;html=0;" parent="HWUBUczun7akZG6CtxvM-4" vertex="1">
          <mxGeometry y="124" width="210" height="26" as="geometry" />
        </mxCell>
        <mxCell id="HWUBUczun7akZG6CtxvM-13" value="productDescription: VARCHAR(200)" style="text;align=left;verticalAlign=top;spacingLeft=4;spacingRight=4;overflow=hidden;rotatable=0;points=[[0,0.5],[1,0.5]];portConstraint=eastwest;rounded=0;shadow=0;html=0;" parent="HWUBUczun7akZG6CtxvM-4" vertex="1">
          <mxGeometry y="150" width="210" height="26" as="geometry" />
        </mxCell>
        <mxCell id="HWUBUczun7akZG6CtxvM-8" value="" style="line;html=1;strokeWidth=1;align=left;verticalAlign=middle;spacingTop=-1;spacingLeft=3;spacingRight=3;rotatable=0;labelPosition=right;points=[];portConstraint=eastwest;" parent="HWUBUczun7akZG6CtxvM-4" vertex="1">
          <mxGeometry y="176" width="210" height="22" as="geometry" />
        </mxCell>
        <mxCell id="HWUBUczun7akZG6CtxvM-9" value="Product information" style="text;align=left;verticalAlign=top;spacingLeft=4;spacingRight=4;overflow=hidden;rotatable=0;points=[[0,0.5],[1,0.5]];portConstraint=eastwest;rounded=0;shadow=0;html=0;" parent="HWUBUczun7akZG6CtxvM-4" vertex="1">
          <mxGeometry y="198" width="210" height="24" as="geometry" />
        </mxCell>
        <mxCell id="HWUBUczun7akZG6CtxvM-14" value="" style="endArrow=classic;html=1;rounded=0;exitX=0.5;exitY=1;exitDx=0;exitDy=0;entryX=0.5;entryY=0;entryDx=0;entryDy=0;" parent="WIyWlLk6GJQsqaUBKTNV-1" source="_sYlSpWN1HYsYs82sBQ6-78" target="HWUBUczun7akZG6CtxvM-4" edge="1">
          <mxGeometry width="50" height="50" relative="1" as="geometry">
            <mxPoint x="250" y="330" as="sourcePoint" />
            <mxPoint x="300" y="280" as="targetPoint" />
          </mxGeometry>
        </mxCell>
      </root>
    </mxGraphModel>
  </diagram>
</mxfile>
